<svg xmlns="http://www.w3.org/2000/svg" xmlns:xlink="http://www.w3.org/1999/xlink" width="1024px" height="1024px" viewBox="0 0 1024 1024" version="1.1">
<defs fill="#000000">
<linearGradient id="linear0" gradientUnits="userSpaceOnUse" x1="0.147738" y1="0.851342" x2="0.845439" y2="0.154437" gradientTransform="matrix(832.015175,0,0,831.979431,96.00075,96.014719)" fill="#000000">
<stop offset="0" style="stop-color:#72ba6f;stop-opacity:1;" fill="#000000"/>
<stop offset="1" style="stop-color:#47c140;stop-opacity:1;" fill="#000000"/>
</linearGradient>
</defs>
<g id="surface1">
<path style=" stroke:none;fill-rule:nonzero;fill:rgb(100%,100%,100%);fill-opacity:1;" d="M 160 0 L 864 0 C 952.363281 0 1024 71.636719 1024 160 L 1024 864 C 1024 952.363281 952.363281 1024 864 1024 L 160 1024 C 71.636719 1024 0 952.363281 0 864 L 0 160 C 0 71.636719 71.636719 0 160 0 Z M 160 0 "/>
<path style=" stroke:none;fill-rule:nonzero;fill:url(#linear0);" d="M 810.398438 290.171875 L 742.066406 358.082031 C 730.054688 368.859375 724.242188 386.203125 730.972656 400.859375 C 776.5 496.089844 759.214844 609.628906 684.527344 684.257812 C 609.8125 758.851562 496.152344 776.121094 400.800781 730.609375 C 386.746094 724.332031 370.265625 729.660156 359.457031 740.617188 L 290.007812 809.945312 C 281.855469 817.945312 277.839844 829.222656 279.125 840.527344 C 280.421875 851.878906 286.914062 861.960938 296.664062 867.863281 C 460.273438 966.882812 670.386719 941.644531 805.8125 806.6875 C 941.238281 671.773438 967.050781 461.960938 868.390625 298.292969 C 862.71875 288.347656 852.722656 281.585938 841.375 280 C 830.007812 278.398438 818.566406 282.1875 810.398438 290.171875 Z M 219.472656 216.390625 C 83.382812 350.808594 56.710938 560.648438 154.835938 724.722656 C 160.5 734.71875 170.476562 741.480469 181.828125 743.0625 C 193.175781 744.664062 204.632812 740.890625 212.832031 732.84375 L 280.769531 665.359375 C 293.085938 654.582031 299.078125 637.042969 292.257812 622.1875 C 246.730469 526.957031 263.984375 413.433594 338.703125 338.808594 C 413.390625 264.210938 527.078125 246.945312 622.398438 292.40625 C 636.285156 298.625 652.542969 293.464844 663.394531 282.824219 L 733.207031 213.085938 C 741.375 205.117188 745.390625 193.839844 744.089844 182.492188 C 742.761719 171.183594 736.316406 161.101562 726.566406 155.167969 C 562.671875 56.996094 352.875 83.003906 217.976562 218.265625 Z M 219.472656 216.390625 "/>
</g>
</svg>